<?xml version="1.0" standalone="no"?>
<!DOCTYPE svg PUBLIC "-//W3C//DTD SVG 20010904//EN"
 "http://www.w3.org/TR/2001/REC-SVG-20010904/DTD/svg10.dtd">
<svg version="1.0" xmlns="http://www.w3.org/2000/svg"
 width="256.000000pt" height="256.000000pt" viewBox="0 0 256.000000 256.000000"
 preserveAspectRatio="xMidYMid meet">
<metadata>
Created by potrace 1.11, written by Peter Selinger 2001-2013
</metadata>
<g transform="translate(0.000000,256.000000) scale(0.100000,-0.100000)"
fill="#000000" stroke="none">
<path d="M267 2430 c-43 -13 -95 -57 -116 -98 -17 -35 -19 -89 -24 -1027 -3
-624 -2 -1007 4 -1036 12 -57 60 -116 113 -140 39 -18 90 -19 1046 -19 956 0
1007 1 1046 19 51 23 99 81 112 135 13 59 9 2013 -5 2047 -18 43 -65 91 -108
110 -38 18 -90 19 -1040 18 -550 0 -1013 -5 -1028 -9z m1463 -765 l0 -55 -64
0 c-156 0 -338 -70 -453 -175 -80 -72 -153 -183 -183 -277 -13 -40 -25 -80
-28 -88 -12 -37 -16 -81 -16 -157 l1 -83 -74 0 -73 0 0 445 0 445 445 0 445 0
0 -55z m65 -190 c90 -24 174 -73 245 -145 202 -202 213 -487 29 -736 -176
-238 -566 -265 -776 -54 -84 85 -155 224 -174 343 -42 254 137 522 394 592 70
18 209 19 282 0z"/>
<path d="M1553 1375 c-170 -46 -298 -179 -334 -346 -6 -29 -9 -91 -7 -138 8
-159 88 -275 243 -352 71 -35 94 -42 167 -46 101 -7 169 7 256 49 170 84 259
256 232 450 -37 268 -303 451 -557 383z m208 -41 c74 -22 109 -44 109 -69 0
-25 -53 -77 -96 -94 -39 -15 -44 -38 -44 -213 l0 -128 -189 0 c-124 0 -192 4
-196 11 -8 12 -17 83 -16 116 0 12 8 41 17 65 9 24 20 71 24 106 6 48 15 72
37 100 82 102 223 144 354 106z"/>
</g>
</svg>
